<svg width="0" height="0" class="hidden">
    <symbol xmlns="http://www.w3.org/2000/svg" viewBox="0 0 16 16" id="icon-search">
        <path d="M11.742 10.344a6.5 6.5 0 1 0-1.397 1.398h-.001c.03.04.062.078.098.115l3.85 3.85a1 1 0 0 0 1.415-1.414l-3.85-3.85a1.007 1.007 0 0 0-.115-.1zM12 6.5a5.5 5.5 0 1 1-11 0 5.5 5.5 0 0 1 11 0z"/>
    </symbol>
    <symbol xmlns="http://www.w3.org/2000/svg" viewBox="0 0 16 16" id="arrow-left">
        <path d="M15 2a1 1 0 0 0-1-1H2a1 1 0 0 0-1 1v12a1 1 0 0 0 1 1h12a1 1 0 0 0 1-1V2zM0 2a2 2 0 0 1 2-2h12a2 2 0 0 1 2 2v12a2 2 0 0 1-2 2H2a2 2 0 0 1-2-2V2zm11.5 5.5a.5.5 0 0 1 0 1H5.707l2.147 2.146a.5.5 0 0 1-.708.708l-3-3a.5.5 0 0 1 0-.708l3-3a.5.5 0 1 1 .708.708L5.707 7.5H11.5z"/>
    </symbol>
    <symbol xmlns="http://www.w3.org/2000/svg" viewBox="0 0 16 16" id="arrow-right">
        <path d="M15 2a1 1 0 0 0-1-1H2a1 1 0 0 0-1 1v12a1 1 0 0 0 1 1h12a1 1 0 0 0 1-1V2zM0 2a2 2 0 0 1 2-2h12a2 2 0 0 1 2 2v12a2 2 0 0 1-2 2H2a2 2 0 0 1-2-2V2zm4.5 5.5a.5.5 0 0 0 0 1h5.793l-2.147 2.146a.5.5 0 0 0 .708.708l3-3a.5.5 0 0 0 0-.708l-3-3a.5.5 0 1 0-.708.708L10.293 7.5H4.5z"/>
    </symbol>
    <symbol xmlns="http://www.w3.org/2000/svg" viewBox="0 0 16 16" id="arrow-right">
        <path d="M15 2a1 1 0 0 0-1-1H2a1 1 0 0 0-1 1v12a1 1 0 0 0 1 1h12a1 1 0 0 0 1-1V2zM0 2a2 2 0 0 1 2-2h12a2 2 0 0 1 2 2v12a2 2 0 0 1-2 2H2a2 2 0 0 1-2-2V2zm4.5 5.5a.5.5 0 0 0 0 1h5.793l-2.147 2.146a.5.5 0 0 0 .708.708l3-3a.5.5 0 0 0 0-.708l-3-3a.5.5 0 1 0-.708.708L10.293 7.5H4.5z"/>
    </symbol>
    <symbol xmlns="http://www.w3.org/2000/svg" viewBox="0 0 18 14" id="back">
        <path d="M3.57825 6.16675L8.45628 1.52411L7.30726 0.316833L0.92557 6.39056C0.580738 6.71876 0.580433 7.26863 0.9249 7.59721L7.30659 13.6845L8.45695 12.4785L3.58724 7.83342L17.3334 7.8343L17.3335 6.16763L10.4559 6.16719L3.57825 6.16675Z"></path>
    </symbol>
    <symbol xmlns="http://www.w3.org/2000/svg" viewBox="0 0 17 18" id="doc-edit">
        <path d="M3.33333 1.50001C3.33333 1.03977 3.70643 0.666672 4.16667 0.666672H15.8333C16.2936 0.666672 16.6667 1.03977 16.6667 1.50001V16.5C16.6667 16.9602 16.2936 17.3333 15.8333 17.3333H8.33333V15.6667H15V2.33334H5V6.50001H3.33333V1.50001Z"></path>
        <path d="M6.91074 6.74408C7.23618 6.41865 7.76382 6.41865 8.08926 6.74408L10.5893 9.24408C10.9147 9.56952 10.9147 10.0972 10.5893 10.4226L3.92259 17.0893C3.76631 17.2455 3.55435 17.3333 3.33333 17.3333H0.833333C0.373096 17.3333 0 16.9602 0 16.5V14C0 13.779 0.0877973 13.567 0.244078 13.4108L6.91074 6.74408ZM1.66667 14.3452V15.6667H2.98816L8.82149 9.83334L7.5 8.51185L1.66667 14.3452Z"></path>
    </symbol>
    <symbol xmlns="http://www.w3.org/2000/svg" viewBox="0 0 18 20" id="docs">
        <path d="M1.49984 0.833328C1.0396 0.833328 0.666504 1.20642 0.666504 1.66666V15H2.33317V2.49999H13.1665V0.833328H1.49984Z"></path>
        <path d="M7.33317 7.49999H13.9998V9.16666H7.33317V7.49999Z"></path>
        <path d="M4.83317 4.16666C4.37293 4.16666 3.99984 4.53976 3.99984 4.99999V18.3333C3.99984 18.7936 4.37293 19.1667 4.83317 19.1667H16.4998C16.9601 19.1667 17.3332 18.7936 17.3332 18.3333V4.99999C17.3332 4.53976 16.9601 4.16666 16.4998 4.16666H4.83317ZM5.6665 17.5V5.83333H15.6665V17.5H5.6665Z"></path>
    </symbol>
    <symbol xmlns="http://www.w3.org/2000/svg" viewBox="0 0 17 18" id="doc-send">
        <path d="M13.6668 1.50001C13.6668 1.03977 13.2937 0.666672 12.8335 0.666672H1.16683C0.706592 0.666672 0.333496 1.03977 0.333496 1.50001V16.5C0.333496 16.9602 0.706592 17.3333 1.16683 17.3333H7.00016V15.6667H2.00016V2.33334H12.0002V7.33334H13.6668V1.50001Z"></path>
        <path d="M16.7561 12.5774L13.0061 8.82742L11.8276 10.0059L14.155 12.3333H7.00016V14H14.155L11.8276 16.3274L13.0061 17.5059L16.7561 13.7559C17.0815 13.4305 17.0815 12.9029 16.7561 12.5774Z"></path>
    </symbol>
    <symbol xmlns="http://www.w3.org/2000/svg" viewBox="0 0 16 18" id="list">
        <path d="M2.16667 1.50001C2.16667 1.03977 2.53976 0.666672 3 0.666672H14.6667C15.1269 0.666672 15.5 1.03977 15.5 1.50001V16.5C15.5 16.9602 15.1269 17.3333 14.6667 17.3333H3C2.53976 17.3333 2.16667 16.9602 2.16667 16.5V14.8333H3.83333V15.6667H13.8333V2.33334H3.83333V3.16667H2.16667V1.50001Z"></path>
        <path d="M0.5 4.83334V6.50001H3.83333V4.83334H0.5Z"></path>
        <path d="M0.5 9.83334V8.16667H3.83333V9.83334H0.5Z"></path>
        <path d="M0.5 11.5V13.1667H3.83333V11.5H0.5Z"></path>
    </symbol>
    <symbol xmlns="http://www.w3.org/2000/svg" viewBox="0 0 14 18" id="card">
        <path d="M4.49992 1.50001C4.49992 1.03977 4.87301 0.666672 5.33325 0.666672H8.66658C9.12682 0.666672 9.49992 1.03977 9.49992 1.50001V4.00001H8.66658C8.20635 4.00001 7.83325 3.62691 7.83325 3.16667V2.33334H6.16658V3.16667C6.16658 3.62691 5.79349 4.00001 5.33325 4.00001H4.49992V1.50001Z"></path>
        <path d="M1.16659 2.33334C0.706348 2.33334 0.333252 2.70643 0.333252 3.16667V16.5C0.333252 16.9602 0.706348 17.3333 1.16659 17.3333H12.8333C13.2935 17.3333 13.6666 16.9602 13.6666 16.5V3.16667C13.6666 2.70643 13.2935 2.33334 12.8333 2.33334H11.1666V4.00001H11.9999V15.6667H1.99992V4.00001H2.83325V2.33334H1.16659Z"></path>
    </symbol>
    <symbol xmlns="http://www.w3.org/2000/svg" viewBox="0 0 14 2" id="del">
        <path d="M13.6668 1.83335H0.333496V0.166687H13.6668V1.83335Z"></path>
    </symbol>
    <symbol xmlns="http://www.w3.org/2000/svg" viewBox="0 0 16 16" id="add">
        <path d="M8.83333 0.5H7.16667V7.16667H0.5V8.83333H7.16667V15.5H8.83333V8.83333H15.5V7.16667H8.83333V0.5Z"></path>
    </symbol>
    <symbol xmlns="http://www.w3.org/2000/svg" viewBox="0 0 18 14" id="sorting">
        <path d="M10.0776 12.2441L15.3217 6.99998L10.0776 1.7559L11.2561 0.577392L17.0894 6.41073C17.4149 6.73616 17.4149 7.2638 17.0894 7.58924L11.2561 13.4226L10.0776 12.2441Z"></path>
        <path d="M7.92275 1.75593L2.67867 7.00001L7.92275 12.2441L6.74424 13.4226L0.910907 7.58926C0.58547 7.26382 0.58547 6.73619 0.910907 6.41075L6.74424 0.577417L7.92275 1.75593Z"></path>
    </symbol>
    <symbol xmlns="http://www.w3.org/2000/svg" viewBox="0 0 14 18" id="tab">
        <path fill-rule="evenodd" clip-rule="evenodd" d="M5.3335 2.33335V0.666687H3.66683V2.33335H1.16683C0.706592 2.33335 0.333496 2.70645 0.333496 3.16669V16.5C0.333496 16.9603 0.706592 17.3334 1.16683 17.3334H12.8335C13.2937 17.3334 13.6668 16.9603 13.6668 16.5V3.16669C13.6668 2.70645 13.2937 2.33335 12.8335 2.33335H10.3335V0.666687H8.66683V2.33335H5.3335ZM8.66683 5.66669V4.00002H5.3335V5.66669H3.66683V4.00002H2.00016V15.6667H12.0002V4.00002H10.3335V5.66669H8.66683Z"></path>
    </symbol>

    <symbol xmlns="http://www.w3.org/2000/svg" viewBox="0 0 18 19" id="mail" >
        <path d="M8.41089 1.07739C8.73633 0.751954 9.26396 0.751954 9.5894 1.07739L12.9227 4.41072L11.7442 5.58923L9.83342 3.67843V9.16665H8.16675V3.67855L6.25607 5.58923L5.07756 4.41072L8.41089 1.07739Z"/>
        <path fill-rule="evenodd" clip-rule="evenodd" d="M1.50008 6.66665C1.03984 6.66665 0.666748 7.03974 0.666748 7.49998V17.5C0.666748 17.9602 1.03984 18.3333 1.50008 18.3333H16.5001C16.9603 18.3333 17.3334 17.9602 17.3334 17.5V7.49998C17.3334 7.03974 16.9603 6.66665 16.5001 6.66665H11.5001V8.33331H14.2782L9.00041 12.2917L3.72262 8.33331H6.50008V6.66665H1.50008ZM2.33341 9.37475V16.6666H15.6667V9.37523L9.50041 14C9.20411 14.2222 8.7967 14.2222 8.50041 14L2.33341 9.37475Z"/>
    </symbol>
    <symbol xmlns="http://www.w3.org/2000/svg" viewBox="0 0 17 19" id="form" >
        <path d="M4.16667 0.666687C3.70643 0.666687 3.33333 1.03978 3.33333 1.50002V4.83335H5V2.33335H15V15.6667H12.5V17.3334H15.8333C16.2936 17.3334 16.6667 16.9603 16.6667 16.5V1.50002C16.6667 1.03978 16.2936 0.666687 15.8333 0.666687H4.16667Z" fill="black"/>
        <path d="M6.66667 9.83335V11.9882L8.08926 13.4108L6.91074 14.5893L5 12.6785V9.83335H6.66667Z" fill="black"/>
        <path fill-rule="evenodd" clip-rule="evenodd" d="M0 12.3334C0 9.11169 2.61167 6.50002 5.83333 6.50002C9.05499 6.50002 11.6667 9.11169 11.6667 12.3334C11.6667 15.555 9.05499 18.1667 5.83333 18.1667C2.61167 18.1667 0 15.555 0 12.3334ZM5.83333 8.16669C3.53215 8.16669 1.66667 10.0322 1.66667 12.3334C1.66667 14.6345 3.53215 16.5 5.83333 16.5C8.13452 16.5 10 14.6345 10 12.3334C10 10.0322 8.13452 8.16669 5.83333 8.16669Z" fill="black"/>
    </symbol>
    <symbol xmlns="http://www.w3.org/2000/svg" viewBox="0 0 17 18" id="edit" >
        <path fill-rule="evenodd" clip-rule="evenodd" d="M3.33333 1.50002C3.33333 1.03978 3.70643 0.666687 4.16667 0.666687H15.8333C16.2936 0.666687 16.6667 1.03978 16.6667 1.50002V16.5C16.6667 16.9603 16.2936 17.3334 15.8333 17.3334H8.33333V15.6667H15V2.33335H5V6.50002H3.33333V1.50002Z" fill="black"/>
        <path fill-rule="evenodd" clip-rule="evenodd" d="M6.91074 6.7441C7.23618 6.41866 7.76382 6.41866 8.08926 6.7441L10.5893 9.2441C10.9147 9.56954 10.9147 10.0972 10.5893 10.4226L3.92259 17.0893C3.76631 17.2456 3.55435 17.3334 3.33333 17.3334H0.833333C0.373096 17.3334 0 16.9603 0 16.5V14C0 13.779 0.0877973 13.567 0.244078 13.4108L6.91074 6.7441ZM1.66667 14.3452V15.6667H2.98816L8.82149 9.83335L7.5 8.51187L1.66667 14.3452Z" fill="black"/>
    </symbol>
    <symbol xmlns="http://www.w3.org/2000/svg" viewBox="0 0 17 18" id="enter" >
        <path d="M13.6666 1.50002C13.6666 1.03978 13.2935 0.666687 12.8333 0.666687H1.16659C0.706348 0.666687 0.333252 1.03978 0.333252 1.50002V16.5C0.333252 16.9603 0.706348 17.3334 1.16659 17.3334H6.99992V15.6667H1.99992V2.33335H11.9999V7.33335H13.6666V1.50002Z" fill="black"/>
        <path d="M7.244 12.5774L10.994 8.82743L12.1725 10.0059L9.8451 12.3334H16.9999V14H9.8451L12.1725 16.3274L10.994 17.5059L7.244 13.7559C6.91856 13.4305 6.91856 12.9029 7.244 12.5774Z" fill="black"/>
    </symbol>
    <symbol xmlns="http://www.w3.org/2000/svg" viewBox="0 0 17 18" id="complete" >
        <path fill-rule="evenodd" clip-rule="evenodd" d="M3.3334 1.49996C3.3334 1.03972 3.70649 0.666626 4.16673 0.666626H15.8334C16.2936 0.666626 16.6667 1.03972 16.6667 1.49996V16.5C16.6667 16.9602 16.2936 17.3333 15.8334 17.3333H9.16673V15.6666H15.0001V2.33329H5.00006V8.99996H3.3334V1.49996Z" fill="black"/>
        <path fill-rule="evenodd" clip-rule="evenodd" d="M11.006 10.0059L4.33932 16.6726C4.01388 16.998 3.48624 16.998 3.16081 16.6726L0.244141 13.7559L1.42265 12.5774L3.75006 14.9048L9.82747 8.82737L11.006 10.0059Z" fill="black"/>
    </symbol>
    <symbol xmlns="http://www.w3.org/2000/svg" viewBox="0 0 23 9" id="ecp" >
        <path d="M0.414 4.732H1.719C1.833 5.134 2.04 5.428 2.34 5.614C2.64 5.8 3.054 5.893 3.582 5.893C4.176 5.893 4.629 5.776 4.941 5.542C5.253 5.302 5.445 4.924 5.517 4.408H3.141V3.292H5.517C5.445 2.776 5.253 2.398 4.941 2.158C4.629 1.918 4.176 1.798 3.582 1.798C2.556 1.798 1.935 2.185 1.719 2.959H0.414C0.534 2.149 0.849 1.558 1.359 1.186C1.869 0.808 2.61 0.619 3.582 0.619C4.716 0.619 5.538 0.874 6.048 1.384C6.564 1.894 6.822 2.716 6.822 3.85C6.822 4.978 6.564 5.8 6.048 6.316C5.538 6.826 4.716 7.081 3.582 7.081C2.61 7.081 1.869 6.895 1.359 6.523C0.849 6.145 0.534 5.548 0.414 4.732ZM7.83661 0.7H9.10561V5.812H12.6876V0.7H13.9476V5.812H14.9646V8.467H13.7046V7H7.83661V0.7ZM15.8786 7V0.7H22.0796V7H20.8196V1.888H17.1476V7H15.8786Z" fill="black"/>
    </symbol>
    <symbol xmlns="http://www.w3.org/2000/svg"  viewBox="0 0 16 16" id="download">
        <path d="M8.5 6.5a.5.5 0 0 0-1 0v3.793L6.354 9.146a.5.5 0 1 0-.708.708l2 2a.5.5 0 0 0 .708 0l2-2a.5.5 0 0 0-.708-.708L8.5 10.293V6.5z"/>
        <path d="M14 14V4.5L9.5 0H4a2 2 0 0 0-2 2v12a2 2 0 0 0 2 2h8a2 2 0 0 0 2-2zM9.5 3A1.5 1.5 0 0 0 11 4.5h2V14a1 1 0 0 1-1 1H4a1 1 0 0 1-1-1V2a1 1 0 0 1 1-1h5.5v2z"/>
    </symbol>
    <symbol xmlns="http://www.w3.org/2000/svg" viewBox="0 0 16 16" id="action">
        <path fill-rule="evenodd" d="M1 11.5a.5.5 0 0 0 .5.5h11.793l-3.147 3.146a.5.5 0 0 0 .708.708l4-4a.5.5 0 0 0 0-.708l-4-4a.5.5 0 0 0-.708.708L13.293 11H1.5a.5.5 0 0 0-.5.5zm14-7a.5.5 0 0 1-.5.5H2.707l3.147 3.146a.5.5 0 1 1-.708.708l-4-4a.5.5 0 0 1 0-.708l4-4a.5.5 0 1 1 .708.708L2.707 4H14.5a.5.5 0 0 1 .5.5z"/>
    </symbol>
    <symbol xmlns="http://www.w3.org/2000/svg" viewBox="0 0 16 16" id="arrow-down">
        <path d="M8 5a.5.5 0 0 1 .5.5v3.793l1.146-1.147a.5.5 0 0 1 .708.708l-2 2a.5.5 0 0 1-.708 0l-2-2a.5.5 0 1 1 .708-.708L7.5 9.293V5.5A.5.5 0 0 1 8 5z"></path>
    </symbol>
    <symbol xmlns="http://www.w3.org/2000/svg" viewBox="0 0 16 16" id="upload">
        <path d="M.5 9.9a.5.5 0 0 1 .5.5v2.5a1 1 0 0 0 1 1h12a1 1 0 0 0 1-1v-2.5a.5.5 0 0 1 1 0v2.5a2 2 0 0 1-2 2H2a2 2 0 0 1-2-2v-2.5a.5.5 0 0 1 .5-.5z"/>
        <path d="M7.646 1.146a.5.5 0 0 1 .708 0l3 3a.5.5 0 0 1-.708.708L8.5 2.707V11.5a.5.5 0 0 1-1 0V2.707L5.354 4.854a.5.5 0 1 1-.708-.708l3-3z"/>
    </symbol>
    <symbol xmlns="http://www.w3.org/2000/svg" viewBox="0 0 16 16" id="pdf_file">
        <path d="M14 4.5V14a2 2 0 0 1-2 2h-1v-1h1a1 1 0 0 0 1-1V4.5h-2A1.5 1.5 0 0 1 9.5 3V1H4a1 1 0 0 0-1 1v9H2V2a2 2 0 0 1 2-2h5.5L14 4.5ZM1.6 11.85H0v3.999h.791v-1.342h.803c.287 0 .531-.057.732-.173.203-.117.358-.275.463-.474a1.42 1.42 0 0 0 .161-.677c0-.25-.053-.476-.158-.677a1.176 1.176 0 0 0-.46-.477c-.2-.12-.443-.179-.732-.179Zm.545 1.333a.795.795 0 0 1-.085.38.574.574 0 0 1-.238.241.794.794 0 0 1-.375.082H.788V12.48h.66c.218 0 .389.06.512.181.123.122.185.296.185.522Zm1.217-1.333v3.999h1.46c.401 0 .734-.08.998-.237a1.45 1.45 0 0 0 .595-.689c.13-.3.196-.662.196-1.084 0-.42-.065-.778-.196-1.075a1.426 1.426 0 0 0-.589-.68c-.264-.156-.599-.234-1.005-.234H3.362Zm.791.645h.563c.248 0 .45.05.609.152a.89.89 0 0 1 .354.454c.079.201.118.452.118.753a2.3 2.3 0 0 1-.068.592 1.14 1.14 0 0 1-.196.422.8.8 0 0 1-.334.252 1.298 1.298 0 0 1-.483.082h-.563v-2.707Zm3.743 1.763v1.591h-.79V11.85h2.548v.653H7.896v1.117h1.606v.638H7.896Z"/>
    </symbol>
    <symbol xmlns="http://www.w3.org/2000/svg" viewBox="0 0 16 16" id="check-circle">
        <path d="M2.5 8a5.5 5.5 0 0 1 8.25-4.764.5.5 0 0 0 .5-.866A6.5 6.5 0 1 0 14.5 8a.5.5 0 0 0-1 0 5.5 5.5 0 1 1-11 0z"/>
        <path d="M15.354 3.354a.5.5 0 0 0-.708-.708L8 9.293 5.354 6.646a.5.5 0 1 0-.708.708l3 3a.5.5 0 0 0 .708 0l7-7z"/>
    </symbol>
    <symbol xmlns="http://www.w3.org/2000/svg" viewBox="0 0 16 16" id="not-unite">
        <path d="M0 10.5a.5.5 0 0 1 .5-.5h15a.5.5 0 0 1 0 1H.5a.5.5 0 0 1-.5-.5zM12 0H4a2 2 0 0 0-2 2v7h1V2a1 1 0 0 1 1-1h8a1 1 0 0 1 1 1v7h1V2a2 2 0 0 0-2-2zm2 12h-1v2a1 1 0 0 1-1 1H4a1 1 0 0 1-1-1v-2H2v2a2 2 0 0 0 2 2h8a2 2 0 0 0 2-2v-2z"/>
    </symbol>
    <symbol xmlns="http://www.w3.org/2000/svg" viewBox="0 0 16 16" id="is-invalid">
        <path d="M5.884 6.68a.5.5 0 1 0-.768.64L7.349 10l-2.233 2.68a.5.5 0 0 0 .768.64L8 10.781l2.116 2.54a.5.5 0 0 0 .768-.641L8.651 10l2.233-2.68a.5.5 0 0 0-.768-.64L8 9.219l-2.116-2.54z"/>
        <path d="M14 14V4.5L9.5 0H4a2 2 0 0 0-2 2v12a2 2 0 0 0 2 2h8a2 2 0 0 0 2-2zM9.5 3A1.5 1.5 0 0 0 11 4.5h2V14a1 1 0 0 1-1 1H4a1 1 0 0 1-1-1V2a1 1 0 0 1 1-1h5.5v2z"/>
    </symbol>
    <symbol xmlns="http://www.w3.org/2000/svg" viewBox="0 0 16 16" id="start">
        <path d="M6.79 5.093A.5.5 0 0 0 6 5.5v5a.5.5 0 0 0 .79.407l3.5-2.5a.5.5 0 0 0 0-.814l-3.5-2.5z"/>
        <path d="M0 4a2 2 0 0 1 2-2h12a2 2 0 0 1 2 2v8a2 2 0 0 1-2 2H2a2 2 0 0 1-2-2V4zm15 0a1 1 0 0 0-1-1H2a1 1 0 0 0-1 1v8a1 1 0 0 0 1 1h12a1 1 0 0 0 1-1V4z"/>
    </symbol>
    <symbol xmlns="http://www.w3.org/2000/svg" viewBox="0 0 16 16" id="start-pause">
        <path d="M6.79 5.093 9.5 7.028V5.5a.5.5 0 0 1 1 0v5a.5.5 0 0 1-1 0V8.972l-2.71 1.935A.5.5 0 0 1 6 10.5v-5a.5.5 0 0 1 .79-.407z"/>
        <path d="M0 4a2 2 0 0 1 2-2h12a2 2 0 0 1 2 2v8a2 2 0 0 1-2 2H2a2 2 0 0 1-2-2V4zm15 0a1 1 0 0 0-1-1H2a1 1 0 0 0-1 1v8a1 1 0 0 0 1 1h12a1 1 0 0 0 1-1V4z"/>
    </symbol>
    <symbol xmlns="http://www.w3.org/2000/svg" viewBox="0 0 16 16" id="stop">
        <path d="M6.5 5A1.5 1.5 0 0 0 5 6.5v3A1.5 1.5 0 0 0 6.5 11h3A1.5 1.5 0 0 0 11 9.5v-3A1.5 1.5 0 0 0 9.5 5h-3z"/>
        <path d="M0 4a2 2 0 0 1 2-2h12a2 2 0 0 1 2 2v8a2 2 0 0 1-2 2H2a2 2 0 0 1-2-2V4zm15 0a1 1 0 0 0-1-1H2a1 1 0 0 0-1 1v8a1 1 0 0 0 1 1h12a1 1 0 0 0 1-1V4z"/>
    </symbol>
    <symbol xmlns="http://www.w3.org/2000/svg" viewBox="0 0 16 16" id="pause">
        <path d="M6.25 5C5.56 5 5 5.56 5 6.25v3.5a1.25 1.25 0 1 0 2.5 0v-3.5C7.5 5.56 6.94 5 6.25 5zm3.5 0c-.69 0-1.25.56-1.25 1.25v3.5a1.25 1.25 0 1 0 2.5 0v-3.5C11 5.56 10.44 5 9.75 5z"/>
        <path d="M0 4a2 2 0 0 1 2-2h12a2 2 0 0 1 2 2v8a2 2 0 0 1-2 2H2a2 2 0 0 1-2-2V4zm15 0a1 1 0 0 0-1-1H2a1 1 0 0 0-1 1v8a1 1 0 0 0 1 1h12a1 1 0 0 0 1-1V4z"/>
    </symbol>
</svg>

